# xmcd CD database file
#
# Track frame offsets:
#	150
#	22635
#	45549
#	67183
#	89925
#	110092
#	133726
#	151972
#	174472
#	193176
#	219753
#	240865
#	261211
#	281273
#	303554
#
# Disc length: 4324 seconds
#
# Revision: 0
# Processed by: cddbd v1.5.1PL0 Copyright (c) Steve Scherf et al.
# Submitted via: CDex 1.51
#
DISCID=d010e20f
DTITLE=林志炫 - 擦声而过
DYEAR=1900
DGENRE=Blues
TTITLE0=离人
TTITLE1=爱情酿的酒
TTITLE2=花房姑娘
TTITLE3=袖手旁观
TTITLE4=三个人的晚餐
TTITLE5=玫瑰花瓣的信笺
TTITLE6=野百合也有春天
TTITLE7=温柔的拒绝
TTITLE8=不要间
TTITLE9=写一首歌
TTITLE10=你是我前世的知己
TTITLE11=你是爱情的原因
TTITLE12=蒙娜丽莎的眼泪
TTITLE13=单身情歌
TTITLE14=有些女人不能碰
EXTD=
EXTT0=
EXTT1=
EXTT2=
EXTT3=
EXTT4=
EXTT5=
EXTT6=
EXTT7=
EXTT8=
EXTT9=
EXTT10=
EXTT11=
EXTT12=
EXTT13=
EXTT14=
PLAYORDER=
